<?xml version="1.0" standalone="no"?><!DOCTYPE svg PUBLIC "-//W3C//DTD SVG 1.1//EN" "http://www.w3.org/Graphics/SVG/1.1/DTD/svg11.dtd"><svg t="1764661846478" class="icon" viewBox="0 0 1024 1024" version="1.1" xmlns="http://www.w3.org/2000/svg" p-id="7754" xmlns:xlink="http://www.w3.org/1999/xlink" width="256" height="256"><path d="M128 64c-35.3 0-64 28.7-64 64v768c0 35.3 28.7 64 64 64h768c35.3 0 64-28.7 64-64V128c0-35.3-28.7-64-64-64H128z m0-64h768c70.7 0 128 57.3 128 128v768c0 70.7-57.3 128-128 128H128C57.3 1024 0 966.7 0 896V128C0 57.3 57.3 0 128 0z m181.5 256c-39.4 0-71.7 8.7-97.3 26.6-27.6 18.4-41 44-41 76.3s13.8 56.8 42 73.7c10.8 6.1 38.9 16.4 84 30.7 40.4 12.3 64 20.5 71.2 24.1 22.5 11.3 34.3 26.6 34.3 46.1 0 15.4-8.2 27.1-23.6 36.4-15.4 8.7-36.9 13.3-63.5 13.3-30.2 0-52.2-5.6-66.6-15.9-15.9-11.8-25.6-31.7-29.7-59.4H160c2.6 46.6 19.5 80.4 50.2 101.9 25.1 17.4 60.4 26.1 105.5 26.1 46.6 0 82.9-9.7 108.5-28.2 25.6-18.9 38.4-45.1 38.4-77.8 0-33.8-15.9-59.9-47.6-78.8-14.3-8.2-46.1-20.5-95.7-35.8-33.8-10.8-54.8-18.4-62.5-22.5-17.4-9.2-25.6-22-25.6-37.4 0-17.4 7.2-30.2 22.5-37.9 12.3-6.7 29.7-9.7 52.7-9.7 26.6 0 47.1 4.6 60.4 14.8 13.3 9.7 23 26.1 28.2 48.6h59.4c-3.6-39.9-18.4-69.6-44-88.6-24.1-17.9-57.9-26.6-100.9-26.6z m282.1 22.5l-58.4 24.1V364h-47.6v48.1h47.6v149.5c0 21.5 5.1 37.4 15.4 48.6 10.8 12.3 27.6 18.4 50.7 18.4h44.5v-48.1H609c-6.1 0-10.2-1.5-13.3-4.6-3.1-3.6-4.1-8.2-4.1-14.3V412.2h58.9V364h-58.9v-85.5z m227.3 78.4c-16.4 0-30.2 4.6-42 14.3-9.7 7.2-17.9 17.4-25.1 30.7V364H694v264.7h57.9V488.4c0-22.5 6.7-40.4 21-54.3 12.3-12.3 26.1-17.9 41.5-17.9 12.3 0 24.6 1.5 37.9 5.6v-58.4c-9.3-4.5-20.6-6.5-33.4-6.5zM512 704v64h320v-64H512z" fill="#3DBE71" p-id="7755"></path></svg>